<?xml version="1.0" encoding="utf-8"?>
<!-- Generator: Adobe Illustrator 16.0.0, SVG Export Plug-In . SVG Version: 6.00 Build 0)  -->
<!DOCTYPE svg PUBLIC "-//W3C//DTD SVG 1.1//EN" "http://www.w3.org/Graphics/SVG/1.1/DTD/svg11.dtd">
<svg version="1.1" id="Calque_1" xmlns="http://www.w3.org/2000/svg" xmlns:xlink="http://www.w3.org/1999/xlink" x="0px" y="0px"
	 width="456.38px" height="154px" viewBox="0 0 456.38 154" enable-background="new 0 0 456.38 154" xml:space="preserve">
<path fill-rule="evenodd" clip-rule="evenodd" fill="#FF7E82" d="M258.68,113.798c-3.088,2.732-5.484,5.004-8.036,7.084
	c-9.328,7.606-23.781,9.962-33.991,1.067c-0.953-0.829-3.542-0.414-5.078,0.18c-4.617,1.783-8.917,4.903-13.654,5.756
	c-10.158,1.827-18.428-1.6-23.122-12.311c-2.647,1.938-4.827,3.597-7.068,5.165c-7.77,5.438-16.313,9.875-25.512,5.243
	c-5.663-2.852-9.887-3.189-15.338-0.357c-4.468,2.321-9.359,1.167-14.036-0.62c-1.689-0.646-3.912-0.97-5.576-0.443
	c-13.919,4.402-25.273-2.651-27.62-17.368c-2.927-18.365,8.032-40.155,24.483-48.898c2.174-1.155,4.596-2.421,6.027-4.303
	c8.445-11.103,26.938-4.966,31.534,5.229c0.732,1.625,1.503,3.231,2.494,5.357c3.047-2.111,5.933-3.743,8.289-5.943
	c0.821-0.767,0.763-3.056,0.371-4.442c-1.881-6.652-1.539-13.213,0.572-19.674c2.556-7.822,9.632-11.374,17.429-8.989
	c10.304,3.152,15.277,11.179,13.516,21.794c-0.13,0.781-0.169,1.577-0.352,3.347c13.773-5.308,24.789-4.348,28.88,13.897
	c1.518-3.22,2.251-4.866,3.06-6.477c4.166-8.294,7.556-17.134,12.819-24.662c3.297-4.715,8.924-8.864,14.38-10.794
	c13.18-4.66,24.291,6.251,21.022,19.878c-0.769,3.203-2.132,6.303-3.538,9.301c-1.087,2.317-0.324,3.299,1.503,4.882
	c4.784,4.146,8.612,4.282,13.977,0.232c5.753-4.343,12.692-4.624,19.123-0.038c0.959,0.685,2.473,1.143,3.602,0.95
	c11.727-1.99,11.719-2.033,21.133,0.776c2.073-4.596,4.058-9.315,6.307-13.905c3.77-7.694,8.19-14.946,15.667-19.688
	c12.421-7.876,26.933-1.683,27.462,12.097c0.169,4.416-1.781,9.054-3.397,13.351c-1.17,3.11-1.648,4.95,2.009,6.68
	c5.003,2.366,7.491,7.009,8.533,12.289c3.638,18.441-8.391,44.581-24.763,53.871c-10.528,5.974-20.719,6.443-30.61-1.681
	c-1.061-0.87-4.01-0.483-5.478,0.365c-6.612,3.826-13.327,7.327-21.174,5.025c-4.784-1.403-9.148-2.035-14.27-1.07
	C270.57,127.777,263.706,122.654,258.68,113.798z M185.789,87.165c0.626,0.159,1.252,0.317,1.878,0.476
	c-0.303,1.921-0.466,3.877-0.936,5.756c-1.283,5.135-3.415,10.171-3.891,15.366c-0.755,8.256,4.943,13.013,13.139,11.947
	c9.015-1.172,25.593-15.642,28.065-24.498c0.134-0.479,0.479-1.089,0.311-1.432c-0.82-1.664-1.439-3.809-2.823-4.673
	c-0.848-0.529-3.443,0.506-4.396,1.591c-4.093,4.669-7.843,9.647-15.181,12.729c0.607-3.573,0.637-5.918,1.429-7.969
	c1.795-4.645,4.065-9.104,5.959-13.715c2.036-4.952,0.89-7.849-3.961-10.101c-2.647-1.229-5.436-2.156-8.936-3.522
	c1.918-1.489,3.2-2.459,4.454-3.463c3.625-2.905,3.413-7.37-0.94-9.01c-2.504-0.943-6.055-0.967-8.481,0.093
	c-6.935,3.025-12.019,8.331-14.834,15.44c-0.754,1.905-0.438,4.216-0.745,6.321c-0.408,2.792-0.217,6.013-1.588,8.249
	c-2.496,4.069-5.844,7.646-9.064,11.225c-1.206,1.341-3.045,2.113-4.595,3.145c-0.454-0.311-0.909-0.622-1.363-0.933
	c1.994-5.346,4.133-10.644,5.934-16.053c1.353-4.062,2.896-8.218,3.239-12.422c0.507-6.215-3.899-9.124-9.733-7.114
	c-7.722,2.66-15.523,13.142-15.914,21.38c-0.28,5.912-7.383,13.755-14.246,15.226c0.164-1.749,0.129-3.373,0.489-4.905
	c1.75-7.442,3.674-14.845,5.384-22.296c0.589-2.568,1.103-5.251,1.008-7.858c-0.19-5.227-5.306-9.444-11.283-10.119
	c-5.452-0.616-7.559,2.221-7.746,7.262c-6.913,0.019-12.08,3.266-16.477,7.8c-6.65,6.857-10.892,14.948-12.483,24.497
	c-0.997,5.982-0.671,11.645,2.315,16.917c3.486,6.155,11.324,7.608,16.783,3.15c1.883-1.537,3.362-3.568,5.045-5.395
	c2.984,8.841,8.294,11.038,16.459,6.431c3.955-2.232,7.508-5.174,11.365-7.88c1.501,10.433,7.719,13.779,17.146,9.368
	c8.839-4.137,15.479-10.841,20.985-18.738C180.377,95.399,183.05,91.26,185.789,87.165z M322.29,106.761
	c4.332,15.941,17.568,15.421,26.649,9.081c9.408-6.568,15.318-15.843,18.31-26.653c1.554-5.617,2.058-11.844,1.494-17.645
	c-0.663-6.84-5.409-9.509-12.183-8.47c-5.622,0.862-11.084,7.589-10.332,12.964c0.169,1.209,0.869,2.572,1.754,3.416
	c6.567,6.27,3.164,20.63-6.141,24.017c0-8.038-0.568-15.994,0.223-23.812c0.442-4.368,2.753-8.718,4.909-12.705
	c4.266-7.889,9.373-15.335,13.424-23.324c2.664-5.254,1.29-10.327-2.063-12.764c-3.585-2.605-9.101-2.316-13.285,1.769
	c-3.878,3.786-7.489,8.104-10.199,12.778c-7.544,13.013-11.125,27.385-12.821,42.226c-0.919,8.044-7.111,11.188-13.12,14.891
	c-0.133-2.462,0.21-4.664,0.942-6.729c2.224-6.263,4.737-12.426,6.868-18.719c1.562-4.613,1.055-9.053-3.23-12.091
	c-4.327-3.069-8.747-1.723-12.548,1.02c-3.58,2.582-6.693,5.811-10.131,8.86c0.246-1.966,0.622-3.875,0.699-5.796
	c0.244-6.066-2.47-8.29-8.318-6.943c-7.616,1.754-16.352,13.349-16.484,21.347c-0.081,4.894-0.809,9.777-1.254,14.664
	c-0.211,2.312-0.729,4.638-0.605,6.93c0.352,6.534,5.013,12.157,10.822,13.43c4.985,1.091,7.435-0.924,7.898-6.05
	c0.493-5.456,1.075-10.926,2.052-16.311c0.848-4.675,4.201-7.28,8.688-8.696c-0.058,2.205-0.693,4.033-1.222,5.893
	c-1.318,4.634-2.957,9.216-3.798,13.938c-1.604,9.008,4.72,14.604,13.524,12.042c2.985-0.869,5.907-2.343,8.502-4.074
	C315.029,112.762,318.419,109.791,322.29,106.761z M236.407,104.34c0-5.165,0.04-9.41-0.008-13.654
	c-0.115-10.345,1.366-20.059,8.662-28.275c3.045-3.43,5.182-7.745,7.327-11.868c1.746-3.354,3.696-6.944,4.047-10.575
	c0.277-2.871-0.884-7.183-2.959-8.635c-2.332-1.632-6.95-1.941-9.596-0.716c-3.726,1.727-7.149,4.949-9.657,8.312
	c-9.488,12.72-13.634,27.617-16.111,43.015c-0.185,1.147,1.637,3.365,2.987,3.885c6.135,2.359,8.443,6.375,5.928,12.484
	c-1.368,3.32-3.479,6.471-5.815,9.221c-2.366,2.784-2.03,4.878,0.108,7.402c4.642,5.479,12.297,6.523,20.083,2.602
	c13.862-6.98,25.49-29.83,23.044-45.281c-1.104-6.976-5.893-10.497-12.836-9.117c-5.031,0.999-7.997,4.499-9.685,9.158
	c-1.388,3.832-0.594,6.815,3.382,8.642c0.618,0.284,1.038,1.288,1.288,2.046C248.66,89.251,243.986,100.102,236.407,104.34z
	 M159.75,44.955c-0.135,0.019-0.27,0.037-0.404,0.055c0.391,2.271,0.18,4.927,1.322,6.719c1.487,2.333,3.795,4.572,6.272,5.633
	c0.995,0.426,3.667-2.141,5.051-3.787c1.689-2.009,2.96-4.414,4.171-6.771c1.891-3.68,1.256-7.084-1.644-10.036
	c-2.819-2.87-6.508-5.546-10.074-3.382c-2.412,1.464-3.274,5.584-4.638,8.603C159.433,42.816,159.75,43.958,159.75,44.955z"/>
<path fill-rule="evenodd" clip-rule="evenodd" fill="#FFFFFF" d="M185.789,87.165c-2.738,4.095-5.411,8.234-8.228,12.273
	c-5.507,7.897-12.146,14.602-20.985,18.738c-9.427,4.411-15.645,1.064-17.146-9.368c-3.856,2.706-7.41,5.647-11.365,7.88
	c-8.165,4.607-13.475,2.41-16.459-6.431c-1.683,1.826-3.163,3.857-5.045,5.395c-5.459,4.458-13.297,3.005-16.783-3.15
	c-2.986-5.272-3.312-10.935-2.315-16.917c1.591-9.549,5.833-17.64,12.483-24.497c4.397-4.534,9.564-7.781,16.477-7.8
	c0.187-5.041,2.293-7.878,7.746-7.262c5.977,0.675,11.093,4.893,11.283,10.119c0.095,2.607-0.418,5.29-1.008,7.858
	c-1.709,7.451-3.634,14.854-5.384,22.296c-0.36,1.532-0.326,3.156-0.489,4.905c6.863-1.471,13.966-9.313,14.246-15.226
	c0.391-8.238,8.192-18.72,15.914-21.38c5.834-2.01,10.241,0.899,9.733,7.114c-0.343,4.204-1.886,8.359-3.239,12.422
	c-1.801,5.409-3.94,10.707-5.934,16.053c0.455,0.311,0.909,0.622,1.363,0.933c1.55-1.031,3.389-1.804,4.595-3.145
	c3.22-3.578,6.568-7.155,9.064-11.225c1.372-2.236,1.18-5.457,1.588-8.249c0.308-2.105-0.009-4.416,0.745-6.321
	c2.816-7.109,7.9-12.415,14.834-15.44c2.427-1.06,5.977-1.036,8.481-0.093c4.354,1.64,4.565,6.104,0.94,9.01
	c-1.254,1.004-2.536,1.974-4.454,3.463c3.5,1.366,6.289,2.293,8.936,3.522c4.851,2.252,5.997,5.148,3.961,10.101
	c-1.895,4.61-4.164,9.07-5.959,13.715c-0.792,2.051-0.822,4.396-1.429,7.969c7.338-3.082,11.088-8.061,15.181-12.729
	c0.952-1.085,3.548-2.12,4.396-1.591c1.384,0.864,2.003,3.009,2.823,4.673c0.169,0.343-0.177,0.952-0.311,1.432
	c-2.472,8.856-19.05,23.326-28.065,24.498c-8.196,1.065-13.895-3.691-13.139-11.947c0.476-5.195,2.608-10.231,3.891-15.366
	c0.47-1.879,0.633-3.835,0.936-5.756C187.041,87.482,186.415,87.324,185.789,87.165z M115.776,74.949
	c-6.106,6.28-8.884,12.786-9.183,20.292c-0.057,1.428,1.307,2.912,2.015,4.37c1.348-1.277,3.581-2.371,3.89-3.864
	C113.837,89.283,114.613,82.702,115.776,74.949z"/>
<path fill-rule="evenodd" clip-rule="evenodd" fill="#FFFFFF" d="M322.29,106.761c-3.871,3.03-7.261,6.001-10.977,8.482
	c-2.595,1.731-5.517,3.205-8.502,4.074c-8.805,2.562-15.129-3.034-13.524-12.042c0.841-4.722,2.479-9.304,3.798-13.938
	c0.528-1.859,1.164-3.688,1.222-5.893c-4.486,1.416-7.84,4.021-8.688,8.696c-0.977,5.385-1.559,10.854-2.052,16.311
	c-0.464,5.126-2.913,7.141-7.898,6.05c-5.81-1.272-10.471-6.896-10.822-13.43c-0.123-2.292,0.395-4.618,0.605-6.93
	c0.445-4.887,1.173-9.771,1.254-14.664c0.133-7.998,8.868-19.593,16.484-21.347c5.849-1.347,8.562,0.877,8.318,6.943
	c-0.077,1.921-0.453,3.83-0.699,5.796c3.438-3.05,6.551-6.278,10.131-8.86c3.801-2.742,8.221-4.089,12.548-1.02
	c4.285,3.038,4.792,7.478,3.23,12.091c-2.131,6.293-4.645,12.456-6.868,18.719c-0.732,2.064-1.075,4.267-0.942,6.729
	c6.009-3.703,12.201-6.847,13.12-14.891c1.696-14.841,5.277-29.213,12.821-42.226c2.71-4.674,6.321-8.992,10.199-12.778
	c4.185-4.085,9.7-4.374,13.285-1.769c3.354,2.437,4.728,7.51,2.063,12.764c-4.051,7.989-9.158,15.436-13.424,23.324
	c-2.156,3.987-4.467,8.337-4.909,12.705c-0.791,7.817-0.223,15.773-0.223,23.812c9.305-3.387,12.708-17.747,6.141-24.017
	c-0.885-0.844-1.585-2.207-1.754-3.416c-0.752-5.375,4.71-12.102,10.332-12.964c6.773-1.039,11.52,1.63,12.183,8.47
	c0.563,5.801,0.06,12.027-1.494,17.645c-2.991,10.811-8.901,20.085-18.31,26.653C339.858,122.182,326.622,122.702,322.29,106.761z"
	/>
<path fill-rule="evenodd" clip-rule="evenodd" fill="#FFFFFF" d="M236.407,104.34c7.579-4.238,12.253-15.089,10.189-21.356
	c-0.25-0.758-0.67-1.762-1.288-2.046c-3.976-1.826-4.77-4.81-3.382-8.642c1.688-4.659,4.653-8.159,9.685-9.158
	c6.943-1.38,11.732,2.142,12.836,9.117c2.446,15.451-9.182,38.301-23.044,45.281c-7.786,3.922-15.441,2.878-20.083-2.602
	c-2.139-2.524-2.475-4.618-0.108-7.402c2.337-2.75,4.447-5.9,5.815-9.221c2.516-6.109,0.207-10.125-5.928-12.484
	c-1.351-0.52-3.172-2.737-2.987-3.885c2.478-15.397,6.623-30.295,16.111-43.015c2.508-3.362,5.932-6.585,9.657-8.312
	c2.646-1.226,7.264-0.916,9.596,0.716c2.075,1.452,3.236,5.764,2.959,8.635c-0.351,3.631-2.301,7.221-4.047,10.575
	c-2.146,4.123-4.282,8.438-7.327,11.868c-7.296,8.217-8.777,17.931-8.662,28.275C236.447,94.93,236.407,99.175,236.407,104.34z"/>
<path fill-rule="evenodd" clip-rule="evenodd" fill="#FFFFFF" d="M159.75,44.955c0-0.997-0.317-2.139,0.057-2.968
	c1.363-3.019,2.226-7.139,4.638-8.603c3.565-2.164,7.254,0.512,10.074,3.382c2.9,2.952,3.535,6.356,1.644,10.036
	c-1.211,2.357-2.481,4.763-4.171,6.771c-1.384,1.646-4.056,4.213-5.051,3.787c-2.477-1.061-4.785-3.3-6.272-5.633
	c-1.143-1.792-0.931-4.447-1.322-6.719C159.48,44.992,159.615,44.974,159.75,44.955z"/>
<path fill-rule="evenodd" clip-rule="evenodd" fill="#FF7E82" d="M115.776,74.949c-1.163,7.753-1.939,14.334-3.278,20.798
	c-0.309,1.493-2.542,2.587-3.89,3.864c-0.708-1.458-2.072-2.942-2.015-4.37C106.893,87.735,109.67,81.229,115.776,74.949z"/>
</svg>
